<?xml version="1.0" encoding="UTF-8" standalone="no"?>
<!DOCTYPE svg PUBLIC "-//W3C//DTD SVG 1.1//EN"
 "http://www.w3.org/Graphics/SVG/1.1/DTD/svg11.dtd">
<!-- Generated by graphviz version 2.26.3 (20100126.1600)
 -->
<!-- Title: models_diagram Pages: 1 -->
<svg width="1537pt" height="658pt"
 viewBox="0.00 0.00 1537.00 658.00" xmlns="http://www.w3.org/2000/svg" xmlns:xlink="http://www.w3.org/1999/xlink">
<g id="graph1" class="graph" transform="scale(1 1) rotate(0) translate(4 654)">
<title>models_diagram</title>
<polygon fill="white" stroke="white" points="-4,5 -4,-654 1534,-654 1534,5 -4,5"/>
<!-- _diagram_info -->
<g id="node1" class="node"><title>_diagram_info</title>
<text text-anchor="start" x="8" y="-511.4" font-family="Times Roman,serif" font-size="14.00">Models diagram</text>
<text text-anchor="start" x="8" y="-493.4" font-family="Times Roman,serif" font-size="14.00">Date: Dec 22 2010 &#45; 22:04</text>
<text text-anchor="start" x="8" y="-475.4" font-family="Times Roman,serif" font-size="14.00">Migration version: 20101211213453</text>
<text text-anchor="start" x="8" y="-457.4" font-family="Times Roman,serif" font-size="14.00">Generated by RailRoad 0.5.0</text>
</g>
<!-- Catalog -->
<g id="node2" class="node"><title>Catalog</title>
<polyline fill="none" stroke="black" points="302,-327 478,-327 "/>
<path fill="none" stroke="black" d="M478,-327C484,-327 490,-333 490,-339"/>
<polyline fill="none" stroke="black" points="490,-339 490,-637 "/>
<path fill="none" stroke="black" d="M490,-637C490,-643 484,-649 478,-649"/>
<polyline fill="none" stroke="black" points="478,-649 302,-649 "/>
<path fill="none" stroke="black" d="M302,-649C296,-649 290,-643 290,-637"/>
<polyline fill="none" stroke="black" points="290,-637 290,-339 "/>
<path fill="none" stroke="black" d="M290,-339C290,-333 296,-327 302,-327"/>
<text text-anchor="middle" x="390" y="-632.4" font-family="Times Roman,serif" font-size="14.00">Catalog</text>
<polyline fill="none" stroke="black" points="290,-623 490,-623 "/>
<text text-anchor="start" x="298" y="-606.4" font-family="Times Roman,serif" font-size="14.00">lft :integer</text>
<text text-anchor="start" x="298" y="-588.4" font-family="Times Roman,serif" font-size="14.00">rgt :integer</text>
<text text-anchor="start" x="298" y="-570.4" font-family="Times Roman,serif" font-size="14.00">depth :integer</text>
<text text-anchor="start" x="298" y="-552.4" font-family="Times Roman,serif" font-size="14.00">title :string</text>
<text text-anchor="start" x="298" y="-534.4" font-family="Times Roman,serif" font-size="14.00">slug :string</text>
<text text-anchor="start" x="298" y="-516.4" font-family="Times Roman,serif" font-size="14.00">description :text</text>
<text text-anchor="start" x="298" y="-498.4" font-family="Times Roman,serif" font-size="14.00">meta_title :string</text>
<text text-anchor="start" x="298" y="-480.4" font-family="Times Roman,serif" font-size="14.00">meta_description :string</text>
<text text-anchor="start" x="298" y="-462.4" font-family="Times Roman,serif" font-size="14.00">is_active :boolean</text>
<text text-anchor="start" x="298" y="-444.4" font-family="Times Roman,serif" font-size="14.00">is_visible :boolean</text>
<text text-anchor="start" x="298" y="-426.4" font-family="Times Roman,serif" font-size="14.00">icon_file_name :string</text>
<text text-anchor="start" x="298" y="-408.4" font-family="Times Roman,serif" font-size="14.00">icon_content_type :string</text>
<text text-anchor="start" x="298" y="-390.4" font-family="Times Roman,serif" font-size="14.00">icon_file_size :integer</text>
<text text-anchor="start" x="298" y="-372.4" font-family="Times Roman,serif" font-size="14.00">icon_updated_at :datetime</text>
<text text-anchor="start" x="298" y="-354.4" font-family="Times Roman,serif" font-size="14.00">created_at :datetime</text>
<text text-anchor="start" x="298" y="-336.4" font-family="Times Roman,serif" font-size="14.00">updated_at :datetime</text>
</g>
<!-- Catalog&#45;&gt;Catalog -->
<g id="edge4" class="edge"><title>Catalog&#45;&gt;Catalog</title>
<path fill="none" stroke="black" d="M498.79,-510.298C504.572,-504.826 508,-497.393 508,-488 508,-477.772 503.936,-469.868 497.193,-464.29"/>
<polygon fill="black" stroke="black" points="498.511,-510.49 487.727,-512.479 494.4,-513.335 490.288,-516.18 490.288,-516.18 490.288,-516.18 494.4,-513.335 492.848,-519.881 498.511,-510.49 498.511,-510.49"/>
<ellipse fill="black" stroke="black" cx="493.646" cy="-461.994" rx="4.00002" ry="4.00002"/>
<text text-anchor="middle" x="535.5" y="-484.4" font-family="Times Roman,serif" font-size="14.00">children</text>
</g>
<!-- UploadedFile -->
<g id="node3" class="node"><title>UploadedFile</title>
<polyline fill="none" stroke="black" points="488.5,-1 717.5,-1 "/>
<path fill="none" stroke="black" d="M717.5,-1C723.5,-1 729.5,-7 729.5,-13"/>
<polyline fill="none" stroke="black" points="729.5,-13 729.5,-275 "/>
<path fill="none" stroke="black" d="M729.5,-275C729.5,-281 723.5,-287 717.5,-287"/>
<polyline fill="none" stroke="black" points="717.5,-287 488.5,-287 "/>
<path fill="none" stroke="black" d="M488.5,-287C482.5,-287 476.5,-281 476.5,-275"/>
<polyline fill="none" stroke="black" points="476.5,-275 476.5,-13 "/>
<path fill="none" stroke="black" d="M476.5,-13C476.5,-7 482.5,-1 488.5,-1"/>
<text text-anchor="middle" x="603" y="-270.4" font-family="Times Roman,serif" font-size="14.00">UploadedFile</text>
<polyline fill="none" stroke="black" points="476.5,-261 729.5,-261 "/>
<text text-anchor="start" x="484.5" y="-244.4" font-family="Times Roman,serif" font-size="14.00">title :string</text>
<text text-anchor="start" x="484.5" y="-226.4" font-family="Times Roman,serif" font-size="14.00">description :text</text>
<text text-anchor="start" x="484.5" y="-208.4" font-family="Times Roman,serif" font-size="14.00">attachment_file_name :string</text>
<text text-anchor="start" x="484.5" y="-190.4" font-family="Times Roman,serif" font-size="14.00">attachment_content_type :string</text>
<text text-anchor="start" x="484.5" y="-172.4" font-family="Times Roman,serif" font-size="14.00">attachment_file_size :integer</text>
<text text-anchor="start" x="484.5" y="-154.4" font-family="Times Roman,serif" font-size="14.00">attachment_updated_at :datetime</text>
<text text-anchor="start" x="484.5" y="-136.4" font-family="Times Roman,serif" font-size="14.00">meta_title :string</text>
<text text-anchor="start" x="484.5" y="-118.4" font-family="Times Roman,serif" font-size="14.00">meta_description :string</text>
<text text-anchor="start" x="484.5" y="-100.4" font-family="Times Roman,serif" font-size="14.00">is_public :boolean</text>
<text text-anchor="start" x="484.5" y="-82.4" font-family="Times Roman,serif" font-size="14.00">is_autorization :boolean</text>
<text text-anchor="start" x="484.5" y="-64.4" font-family="Times Roman,serif" font-size="14.00">created_at :datetime</text>
<text text-anchor="start" x="484.5" y="-46.4" font-family="Times Roman,serif" font-size="14.00">updated_at :datetime</text>
<text text-anchor="start" x="484.5" y="-28.4" font-family="Times Roman,serif" font-size="14.00">slug :string</text>
<text text-anchor="start" x="484.5" y="-10.4" font-family="Times Roman,serif" font-size="14.00">diff_array :string</text>
</g>
<!-- Catalog&#45;&gt;UploadedFile -->
<g id="edge2" class="edge"><title>Catalog&#45;&gt;UploadedFile</title>
<path fill="none" stroke="black" d="M495.197,-318.105C500.123,-310.149 505.053,-302.187 509.944,-294.287"/>
<polygon fill="black" stroke="black" points="495.06,-318.325 485.97,-324.459 492.428,-322.577 489.796,-326.828 489.796,-326.828 489.796,-326.828 492.428,-322.577 493.622,-329.197 495.06,-318.325 495.06,-318.325"/>
<ellipse fill="black" stroke="black" cx="512.318" cy="-290.453" rx="4.00002" ry="4.00002"/>
</g>
<!-- Ability -->
<g id="node4" class="node"><title>Ability</title>
<polygon fill="none" stroke="black" points="801,-462 801,-514 861,-514 861,-462 801,-462"/>
<text text-anchor="middle" x="831" y="-497.4" font-family="Times Roman,serif" font-size="14.00">Ability</text>
<polyline fill="none" stroke="black" points="801,-488 861,-488 "/>
<text text-anchor="middle" x="831" y="-471.4" font-family="Times Roman,serif" font-size="14.00"> </text>
</g>
<!-- User -->
<g id="node5" class="node"><title>User</title>
<polyline fill="none" stroke="black" points="592.5,-345 771.5,-345 "/>
<path fill="none" stroke="black" d="M771.5,-345C777.5,-345 783.5,-351 783.5,-357"/>
<polyline fill="none" stroke="black" points="783.5,-357 783.5,-619 "/>
<path fill="none" stroke="black" d="M783.5,-619C783.5,-625 777.5,-631 771.5,-631"/>
<polyline fill="none" stroke="black" points="771.5,-631 592.5,-631 "/>
<path fill="none" stroke="black" d="M592.5,-631C586.5,-631 580.5,-625 580.5,-619"/>
<polyline fill="none" stroke="black" points="580.5,-619 580.5,-357 "/>
<path fill="none" stroke="black" d="M580.5,-357C580.5,-351 586.5,-345 592.5,-345"/>
<text text-anchor="middle" x="682" y="-614.4" font-family="Times Roman,serif" font-size="14.00">User</text>
<polyline fill="none" stroke="black" points="580.5,-605 783.5,-605 "/>
<text text-anchor="start" x="588.5" y="-588.4" font-family="Times Roman,serif" font-size="14.00">email :string</text>
<text text-anchor="start" x="588.5" y="-570.4" font-family="Times Roman,serif" font-size="14.00">crypted_password :string</text>
<text text-anchor="start" x="588.5" y="-552.4" font-family="Times Roman,serif" font-size="14.00">password_salt :string</text>
<text text-anchor="start" x="588.5" y="-534.4" font-family="Times Roman,serif" font-size="14.00">persistence_token :string</text>
<text text-anchor="start" x="588.5" y="-516.4" font-family="Times Roman,serif" font-size="14.00">single_access_token :string</text>
<text text-anchor="start" x="588.5" y="-498.4" font-family="Times Roman,serif" font-size="14.00">perishable_token :string</text>
<text text-anchor="start" x="588.5" y="-480.4" font-family="Times Roman,serif" font-size="14.00">last_request_at :datetime</text>
<text text-anchor="start" x="588.5" y="-462.4" font-family="Times Roman,serif" font-size="14.00">current_login_at :datetime</text>
<text text-anchor="start" x="588.5" y="-444.4" font-family="Times Roman,serif" font-size="14.00">last_login_at :datetime</text>
<text text-anchor="start" x="588.5" y="-426.4" font-family="Times Roman,serif" font-size="14.00">current_login_ip :string</text>
<text text-anchor="start" x="588.5" y="-408.4" font-family="Times Roman,serif" font-size="14.00">last_login_ip :string</text>
<text text-anchor="start" x="588.5" y="-390.4" font-family="Times Roman,serif" font-size="14.00">created_at :datetime</text>
<text text-anchor="start" x="588.5" y="-372.4" font-family="Times Roman,serif" font-size="14.00">updated_at :datetime</text>
<text text-anchor="start" x="588.5" y="-354.4" font-family="Times Roman,serif" font-size="14.00">roles :string</text>
</g>
<!-- User&#45;&gt;UploadedFile -->
<g id="edge6" class="edge"><title>User&#45;&gt;UploadedFile</title>
<path fill="none" stroke="black" d="M646.812,-334.775C643.8,-321.66 640.754,-308.397 637.745,-295.297"/>
<polygon fill="black" stroke="black" points="646.831,-334.858 644.683,-345.611 647.95,-339.731 649.069,-344.604 649.069,-344.604 649.069,-344.604 647.95,-339.731 653.455,-343.597 646.831,-334.858 646.831,-334.858"/>
<ellipse fill="black" stroke="black" cx="636.773" cy="-291.062" rx="4.00001" ry="4.00001"/>
</g>
<!-- UserSession -->
<g id="node6" class="node"><title>UserSession</title>
<polygon fill="none" stroke="black" points="959,-118 959,-170 1059,-170 1059,-118 959,-118"/>
<text text-anchor="middle" x="1009" y="-153.4" font-family="Times Roman,serif" font-size="14.00">UserSession</text>
<polyline fill="none" stroke="black" points="959,-144 1059,-144 "/>
<text text-anchor="middle" x="1009" y="-127.4" font-family="Times Roman,serif" font-size="14.00"> </text>
</g>
<!-- UploadFileSweeper -->
<g id="node7" class="node"><title>UploadFileSweeper</title>
<polygon fill="none" stroke="black" points="1269,-118 1269,-170 1417,-170 1417,-118 1269,-118"/>
<text text-anchor="middle" x="1343" y="-153.4" font-family="Times Roman,serif" font-size="14.00">UploadFileSweeper</text>
<polyline fill="none" stroke="black" points="1269,-144 1417,-144 "/>
<text text-anchor="middle" x="1343" y="-127.4" font-family="Times Roman,serif" font-size="14.00"> </text>
</g>
<!-- Authlogic::Session::Base -->
<g id="node11" class="node"><title>Authlogic::Session::Base</title>
<ellipse fill="none" stroke="black" cx="1009" cy="-488" rx="130.108" ry="18.3848"/>
<text text-anchor="middle" x="1009" y="-484.4" font-family="Times Roman,serif" font-size="14.00">Authlogic::Session::Base</text>
</g>
<!-- Authlogic::Session::Base&#45;&gt;UserSession -->
<g id="edge8" class="edge"><title>Authlogic::Session::Base&#45;&gt;UserSession</title>
<path fill="none" stroke="black" d="M1009,-469.015C1009,-411.125 1009,-236.742 1009,-170.195"/>
</g>
<!-- ActionController::Caching::Sweeper -->
<g id="node13" class="node"><title>ActionController::Caching::Sweeper</title>
<ellipse fill="none" stroke="black" cx="1343" cy="-488" rx="185.969" ry="18.3848"/>
<text text-anchor="middle" x="1343" y="-484.4" font-family="Times Roman,serif" font-size="14.00">ActionController::Caching::Sweeper</text>
</g>
<!-- ActionController::Caching::Sweeper&#45;&gt;UploadFileSweeper -->
<g id="edge10" class="edge"><title>ActionController::Caching::Sweeper&#45;&gt;UploadFileSweeper</title>
<path fill="none" stroke="black" d="M1343,-469.015C1343,-411.125 1343,-236.742 1343,-170.195"/>
</g>
</g>
</svg>
